# File created by Blade
# Date/Time:  Thu Sep 25 17:43:48 2014
# Frame Rate: 120.000 fps
#------------------------------------------------------
:FULLY-SPECIFIED
:DEGREES
354
root -23.261007 32.655689 -6.315819 -353.042325 9.506178 2.197451
Spine -0.068760 9.548704 -1.583993
Head 6.063542 29.651139 8.055478
LeftShoulder -11.800873 20.141276 19.146538
LeftArm 29.236667 0.460996 -38.153228
LeftForeArm 3.910774 -0.000000 16.248741
LeftHand -22.616411 -0.000000 -8.880915
LeftHandThumb1 -26.253704 0.000000 33.147579
RightShoulder -15.818612 10.589935 -28.061670
RightArm -10.782281 -10.958004 63.348946
RightForeArm -23.493427 -0.000000 21.272412
RightHand -6.964456 0.000000 7.941669
RightHandThumb1 -24.326973 -0.000000 -32.862282
LeftUpLeg -8.940680 -8.382818 2.074293
LeftLeg 5.601177 -0.000000 -0.000000
LeftFoot -14.942636 16.044141 336.134565
LeftToeBase 4.127996 -0.000000 -0.000000
RightUpLeg -18.060605 -18.942962 -11.169688
RightLeg 38.763171 -0.000000 -0.000000
RightFoot -15.332184 -28.771489 1.597558
RightToeBase 2.660044 -0.000000 -0.000000
355
root -23.188328 32.676037 -6.336216 -353.033705 9.710441 1.908158
Spine -0.225232 9.457446 -1.608666
Head 6.237432 29.467587 8.701080
LeftShoulder -11.807956 20.186892 19.682746
LeftArm 28.912185 -0.946052 -37.189837
LeftForeArm 4.012204 -0.000000 16.026359
LeftHand -22.635633 0.000000 -8.378809
LeftHandThumb1 -26.253704 0.000000 33.147579
RightShoulder -15.861808 10.646342 -28.196129
RightArm -10.757979 -10.221433 62.053331
RightForeArm -23.707292 -0.000000 21.465210
RightHand -7.176239 -0.000000 7.910575
RightHandThumb1 -24.326973 -0.000000 -32.862282
LeftUpLeg -8.937134 -7.831982 2.205188
LeftLeg 5.395671 -0.000000 -0.000000
LeftFoot -14.639765 15.359848 336.266703
LeftToeBase 4.116706 -0.000000 -0.000000
RightUpLeg -18.441556 -18.344817 -10.132586
RightLeg 39.526884 -0.000000 -0.000000
RightFoot -16.187297 -28.511884 1.913162
RightToeBase 2.622536 -0.000000 -0.000000
356
root -23.118367 32.694785 -6.364114 -352.962640 9.866701 1.687520
Spine -0.414246 9.445663 -1.713751
Head 6.326814 29.171334 9.215766
LeftShoulder -11.855638 20.303311 20.162873
LeftArm 28.716053 -2.443059 -36.190687
LeftForeArm 3.963794 0.000000 15.831746
LeftHand -22.917229 -0.000000 -7.897873
LeftHandThumb1 -26.253704 0.000000 33.147579
RightShoulder -15.940025 10.656868 -28.402204
RightArm -10.744723 -9.332455 60.853491
RightForeArm -24.040127 -0.000000 21.664475
RightHand -7.462108 -0.000000 7.641259
RightHandThumb1 -24.326973 -0.000000 -32.862282
LeftUpLeg -8.865428 -8.197540 2.357031
LeftLeg 4.920584 -0.000000 -0.000000
LeftFoot -14.622338 15.695078 336.128146
LeftToeBase 4.004616 -0.000000 -0.000000
RightUpLeg -18.900436 -17.681120 -9.130806
RightLeg 40.250746 -0.000000 -0.000000
RightFoot -16.823724 -28.120228 1.975392
RightToeBase 2.467939 -0.000000 -0.000000
357
root -23.049101 32.712541 -6.385329 -352.909498 10.003008 1.464012
Spine -0.599746 9.454839 -1.795870
Head 6.460419 28.896391 9.678509
LeftShoulder -11.959506 20.424039 20.571502
LeftArm 28.550310 -4.096312 -35.287570
LeftForeArm 4.016116 -0.000000 15.690418
LeftHand -23.035378 -0.000000 -7.090663
LeftHandThumb1 -26.253704 0.000000 33.147579
RightShoulder -16.024296 10.656579 -28.640019
RightArm -10.758801 -8.293291 59.655224
RightForeArm -24.566546 -0.000000 21.858673
RightHand -7.478217 0.000000 7.505076
RightHandThumb1 -24.326973 -0.000000 -32.862282
LeftUpLeg -8.822623 -8.280212 2.490759
LeftLeg 4.577230 -0.000000 -0.000000
LeftFoot -14.534212 15.765730 336.003970
LeftToeBase 3.623598 -0.000000 -0.000000
RightUpLeg -19.294892 -17.025189 -8.142742
RightLeg 40.822689 -0.000000 -0.000000
RightFoot -17.327091 -27.438046 1.840759
RightToeBase 2.225049 -0.000000 -0.000000
358
root -22.978602 32.728999 -6.403317 -352.873112 10.115727 1.271040
Spine -0.745980 9.470687 -1.886315
Head 6.498095 28.590397 9.993563
LeftShoulder -12.058451 20.498020 21.037035
LeftArm 28.287407 -5.553780 -34.393861
LeftForeArm 3.962549 0.000000 15.746241
LeftHand -23.630659 -0.000000 -6.293808
LeftHandThumb1 -26.253704 0.000000 33.147579
RightShoulder -16.072817 10.699669 -28.906374
RightArm -10.835951 -7.323569 58.487381
RightForeArm -24.931422 0.000000 22.099176
RightHand -7.698090 -0.000000 7.353772
RightHandThumb1 -24.326973 -0.000000 -32.862282
LeftUpLeg -8.747856 -8.278173 2.587560
LeftLeg 4.243222 -0.000000 -0.000000
LeftFoot -14.567962 15.737698 335.760517
LeftToeBase 3.673009 -0.000000 -0.000000
RightUpLeg -19.612562 -16.325286 -7.212956
RightLeg 41.257953 -0.000000 -0.000000
RightFoot -17.897210 -26.598903 1.972369
RightToeBase 2.022046 -0.000000 -0.000000
359
root -22.908151 32.747099 -6.422314 -352.869492 10.214627 1.089052
Spine -0.832085 9.531018 -1.964761
Head 6.573409 28.309468 10.314815
LeftShoulder -12.198394 20.508430 21.439085
LeftArm 28.085727 -7.101078 -33.585568
LeftForeArm 4.290529 -0.000000 15.840487
LeftHand -24.225197 -0.000000 -5.106387
LeftHandThumb1 -26.253704 0.000000 33.147579
RightShoulder -16.177167 10.758470 -29.173145
RightArm -10.900861 -6.400138 57.309088
RightForeArm -25.229424 -0.000000 22.344738
RightHand -7.948867 -0.000000 7.013244
RightHandThumb1 -24.326973 -0.000000 -32.862282
LeftUpLeg -8.643172 -8.294305 2.661123
LeftLeg 3.905224 -0.000000 -0.000000
LeftFoot -14.513940 15.865249 335.677368
LeftToeBase 3.521289 -0.000000 -0.000000
RightUpLeg -19.865334 -15.574362 -6.327454
RightLeg 41.581904 -0.000000 -0.000000
RightFoot -18.481565 -25.587846 2.243074
RightToeBase 1.989078 -0.000000 -0.000000
